# xmcd CD database file
#
# Track frame offsets:
#	150
#	26004
#	49836
#	76886
#	114084
#	142401
#	176995
#	193258
#	211064
#
# Disc length: 2979 seconds
#
# Revision: 0
# Processed by: cddbd v1.5.2PL0 Copyright (c) Steve Scherf et al.
# Submitted via: CDex 1.51
#
DISCID=800ba109
DTITLE=Gonzalo del Val - Three Generations
DYEAR=2011
DGENRE=Jazz
TTITLE0=Question and Answer
TTITLE1=Will you still be mine
TTITLE2=Planeta Miralta
TTITLE3=Alone in Brooklyn
TTITLE4=Los cuatro muleros
TTITLE5=El 7 de Ameyugo
TTITLE6=Espiritu FH
TTITLE7=Malena
TTITLE8=Oxigen
EXTD=YEAR: 2011
EXTT0=
EXTT1=
EXTT2=
EXTT3=
EXTT4=
EXTT5=
EXTT6=
EXTT7=
EXTT8=
PLAYORDER=
